<svg width="80" height="40" viewBox="0 0 80 40" fill="none" xmlns="http://www.w3.org/2000/svg">
<path d="M5.83756 15.2443V11.9088H4.8731V15.2443H5.83756ZM8.95939 11.7003C8.87479 11.8393 8.71404 11.9088 8.47716 11.9088C8.25719 11.9088 8.07953 11.9088 7.94416 11.9088V15.2443C8.28257 15.2443 8.53638 15.1401 8.70558 14.9316C8.87479 14.7231 8.95939 14.4539 8.95939 14.1238V11.7003ZM5.83756 11.0489V8.05212H4.8731V11.0489H5.83756ZM8.95939 8.05212H7.94416V11.0228C8.04569 10.8317 8.19797 10.7362 8.40102 10.7362C8.51946 10.7362 8.6379 10.7709 8.75635 10.8404C8.89171 10.8925 8.95939 10.9881 8.95939 11.127V8.05212ZM6.9797 22.0456C6.9797 22.2367 6.95431 22.4625 6.90355 22.7231C6.85279 22.9837 6.70051 23.114 6.4467 23.114C6.26057 23.114 6.11675 23.0011 6.01523 22.7752C5.93063 22.5841 5.85448 22.3844 5.7868 22.1759C5.73604 21.9674 5.66836 21.7676 5.58376 21.5765L4.46701 18.4495C4.33164 18.8143 4.13706 19.24 3.88325 19.7264C3.64636 20.2128 3.35871 20.6992 3.0203 21.1857C2.69882 21.6547 2.36041 22.0803 2.00508 22.4625C1.66667 22.8621 1.32826 23.1574 0.989848 23.3485C0.888325 23.4007 0.803723 23.4267 0.736041 23.4267C0.668359 23.4267 0.600677 23.4007 0.532995 23.3485C0.482234 23.3138 0.456853 23.2617 0.456853 23.1922C0.456853 23.1574 0.482234 23.0445 0.532995 22.8534C0.600677 22.6623 0.668359 22.4625 0.736041 22.2541C0.803723 22.063 0.846024 21.9327 0.862944 21.8632C1.09983 21.0641 1.29442 20.2649 1.4467 19.4658C1.61591 18.6493 1.72589 17.8328 1.77665 17.0163L4.23858 17.5114C4.3401 17.5288 4.43316 17.5548 4.51777 17.5896C4.60237 17.6243 4.64467 17.7112 4.64467 17.8502C4.64467 17.8849 4.63621 17.9197 4.61929 17.9544C4.60237 17.9891 4.58545 18.0239 4.56853 18.0586C4.90694 18.0065 5.25381 17.9457 5.60914 17.8762C5.96447 17.7894 6.31134 17.7459 6.64975 17.7459C6.73435 17.7459 6.78511 17.772 6.80203 17.8241C6.81895 17.8762 6.83587 17.937 6.85279 18.0065C6.88663 18.1976 6.89509 18.3887 6.87817 18.5798C6.87817 18.7709 6.88663 18.962 6.90355 19.1531C6.92047 19.6395 6.93739 20.1259 6.95431 20.6124C6.97124 21.0814 6.9797 21.5592 6.9797 22.0456ZM9.44162 21.5765C9.44162 21.7155 9.41624 21.9153 9.36548 22.1759C9.33164 22.4539 9.2132 22.5928 9.01015 22.5928C8.87479 22.5928 8.76481 22.5233 8.6802 22.3844C8.5956 22.2628 8.52792 22.1411 8.47716 22.0195C8.20643 21.3594 7.96108 20.6906 7.74112 20.013C7.52115 19.3181 7.29272 18.6232 7.05584 17.9283C7.34349 17.8415 7.67343 17.7459 8.04569 17.6417C8.43486 17.5375 8.77327 17.4853 9.06091 17.4853C9.14552 17.4853 9.20474 17.5201 9.23858 17.5896C9.27242 17.6591 9.2978 17.7372 9.31472 17.8241C9.33164 17.9457 9.3401 18.0847 9.3401 18.241C9.3401 18.3974 9.3401 18.5451 9.3401 18.684C9.35702 19.0662 9.36548 19.4484 9.36548 19.8306C9.3824 20.1954 9.39932 20.5689 9.41624 20.9511C9.41624 21.0554 9.41624 21.1596 9.41624 21.2638C9.43316 21.3681 9.44162 21.4723 9.44162 21.5765ZM12.1066 21.4463C12.1066 21.7416 11.9797 21.8892 11.7259 21.8892C11.6244 21.8892 11.5144 21.8458 11.3959 21.759C11.379 21.7416 11.3029 21.6026 11.1675 21.342C11.0321 21.0814 10.8714 20.7687 10.6853 20.4039C10.5161 20.0217 10.3384 19.6395 10.1523 19.2573C9.98308 18.8578 9.8308 18.5103 9.69543 18.215C9.56007 17.9197 9.47546 17.7286 9.44162 17.6417C9.56007 17.6069 9.74619 17.5461 10 17.4593C10.2538 17.3724 10.5076 17.2942 10.7614 17.2248C11.0152 17.1379 11.1844 17.0945 11.269 17.0945C11.3536 17.0945 11.4129 17.1205 11.4467 17.1726C11.4975 17.2074 11.5398 17.2682 11.5736 17.355C11.6244 17.4593 11.6751 17.7025 11.7259 18.0847C11.7936 18.4495 11.8528 18.8664 11.9036 19.3355C11.9712 19.7872 12.022 20.2128 12.0558 20.6124C12.0897 21.0119 12.1066 21.2899 12.1066 21.4463ZM11.5736 12.4821C11.5736 13.9066 11.2606 14.9055 10.6345 15.4788C10.0254 16.0521 9.04399 16.3388 7.69036 16.3388H2.38579V6.98371H6.06599C6.33672 6.46254 6.59898 5.94137 6.85279 5.4202C7.1066 4.88165 7.35195 4.34311 7.58883 3.80456H6.3198C5.87986 4.25624 5.41455 4.69055 4.92386 5.10749C4.43316 5.52443 3.91709 5.90662 3.37563 6.25407C3.12183 6.41042 2.8088 6.60152 2.43655 6.82736C2.0643 7.03583 1.68359 7.22693 1.29442 7.40065C0.905245 7.557 0.566836 7.63518 0.279188 7.63518C0.228426 7.63518 0.169205 7.62649 0.101523 7.60912C0.0338409 7.59175 0 7.54832 0 7.47883C0 7.44408 0.00846024 7.40934 0.0253807 7.37459C0.0423012 7.32248 0.0592217 7.28773 0.0761421 7.27036C0.228426 7.07926 0.397631 6.89685 0.583756 6.72313C0.769881 6.5494 0.947547 6.37568 1.11675 6.20195C1.60745 5.66341 2.1066 5.04669 2.61421 4.35179C3.13875 3.63952 3.61252 2.90988 4.03553 2.16287C4.47547 1.39848 4.80541 0.677525 5.02538 0L7.91878 0.938111C7.98646 0.955483 8.06261 0.990228 8.14721 1.04235C8.23181 1.09446 8.27411 1.16395 8.27411 1.25081C8.27411 1.35505 8.19797 1.52009 8.04569 1.74593C7.8934 1.9544 7.73266 2.17155 7.56345 2.39739C7.39425 2.60586 7.26734 2.76222 7.18274 2.86645H11.0152C11.2014 2.86645 11.2944 2.962 11.2944 3.1531C11.2944 3.20521 11.2775 3.26602 11.2437 3.33551C11.0406 3.80456 10.6937 4.27362 10.203 4.74267C9.72927 5.21173 9.2132 5.64604 8.65482 6.0456C8.09645 6.4278 7.59729 6.7405 7.15736 6.98371H11.5736V12.4821ZM25.1523 15.6352C25.1523 16.0869 25.0085 16.4083 24.7208 16.5993C24.4332 16.7904 24.0863 16.886 23.6802 16.886H19.0102V24H16.0406V16.886H11.5482V15.8176H16.0406V12.2215H12.8426V11.127H16.0406V7.45277H12.3096V6.33225H17.5888C17.9272 5.32465 18.2656 4.31705 18.6041 3.30945C18.9425 2.28447 19.264 1.26819 19.5685 0.260588C20.0423 0.434312 20.5161 0.616722 20.9898 0.807818C21.4636 0.981542 21.9289 1.16395 22.3858 1.35505C22.4873 1.38979 22.6227 1.45928 22.7919 1.56352C22.978 1.65038 23.0711 1.7633 23.0711 1.90228C23.0711 1.98914 23.0372 2.06732 22.9695 2.13681C22.9188 2.2063 22.868 2.27579 22.8173 2.34528C22.225 3.09229 21.6074 3.80456 20.9645 4.48209C20.3384 5.15961 19.6362 5.77633 18.8579 6.33225H21.802C21.8359 5.96743 21.9712 5.63735 22.2081 5.34202C22.445 5.04669 22.7496 4.89902 23.1218 4.89902C23.4941 4.89902 23.8325 5.02063 24.1371 5.26384C24.4416 5.50706 24.5939 5.82845 24.5939 6.22801C24.5939 6.54072 24.4585 6.82736 24.1878 7.08795C23.934 7.33116 23.6548 7.45277 23.3503 7.45277H19.0102V11.127H20.4315C20.4146 11.0923 20.4061 11.0402 20.4061 10.9707C20.4061 10.6059 20.5499 10.2932 20.8376 10.0326C21.1252 9.77199 21.4382 9.64169 21.7767 9.64169C22.1489 9.64169 22.4788 9.77199 22.7665 10.0326C23.0711 10.2758 23.2234 10.5972 23.2234 10.9967C23.2234 11.3616 23.088 11.6569 22.8173 11.8827C22.5465 12.1086 22.242 12.2215 21.9036 12.2215H19.0102V15.8176H22.2335C22.2335 15.4007 22.3773 15.0358 22.665 14.7231C22.9695 14.4104 23.3249 14.2541 23.731 14.2541C24.0863 14.2541 24.4078 14.393 24.6954 14.671C25 14.949 25.1523 15.2704 25.1523 15.6352ZM16.5228 5.02932C16.5228 5.18567 16.4805 5.32465 16.3959 5.44625C16.3113 5.56786 16.1844 5.62866 16.0152 5.62866C15.8122 5.62866 15.6261 5.5418 15.4569 5.36808C14.8985 4.81216 14.357 4.23019 13.8325 3.62215C13.308 3.01412 12.7665 2.42345 12.2081 1.85016C12.3604 1.78067 12.5804 1.67644 12.868 1.53746C13.1726 1.38111 13.4856 1.21607 13.8071 1.04235C14.1455 0.868622 14.4501 0.720956 14.7208 0.599348C15.0085 0.477742 15.2115 0.416939 15.3299 0.416939C15.5668 0.416939 15.7445 0.521173 15.8629 0.729641C15.8968 0.781759 15.9475 1.01629 16.0152 1.43322C16.0998 1.83279 16.176 2.29316 16.2437 2.81433C16.3283 3.31813 16.3959 3.78719 16.4467 4.2215C16.4975 4.65581 16.5228 4.92508 16.5228 5.02932Z" fill="white"/>
<path d="M36.2944 13.2899H32.2843V21.785H35C35.3215 21.785 35.5753 21.6634 35.7614 21.4202C35.9475 21.177 36.0829 20.8903 36.1675 20.5603C36.2521 20.2302 36.2944 19.9349 36.2944 19.6743V13.2899ZM47.7157 13.2899H43.5787V21.785H46.3959C46.7343 21.785 46.9966 21.6721 47.1827 21.4463C47.3858 21.203 47.5211 20.9164 47.5888 20.5863C47.6734 20.2562 47.7157 19.9522 47.7157 19.6743V13.2899ZM43.8579 2.42345H36.3198V8.443H42.2081C42.7496 8.443 43.1557 8.22584 43.4264 7.79153C43.714 7.33985 43.8579 6.87079 43.8579 6.38437V2.42345ZM39.3147 19.0489C39.3147 20.5081 38.9425 21.5418 38.198 22.1498C37.4535 22.7752 36.4044 23.0879 35.0508 23.0879H29.264V12.0391H39.3147V19.0489ZM50.8883 19.0489C50.8883 20.5603 50.5415 21.6113 49.8477 22.202C49.1709 22.7926 48.1303 23.0879 46.7259 23.0879H40.6091V12.0391H50.8883V19.0489ZM47.1066 5.75896C47.1066 7.13138 46.7597 8.13029 46.066 8.7557C45.3892 9.38111 44.3993 9.69381 43.0964 9.69381H33.3756V1.12052H47.1066V5.75896Z" fill="white"/>
<path d="M60.8376 4.2215H58.6802V14.8274H59.264C59.7208 14.8274 60.0592 14.6797 60.2792 14.3844C60.5161 14.0717 60.6684 13.6895 60.736 13.2378C60.8206 12.7861 60.8545 12.3344 60.8376 11.8827C60.8376 11.4137 60.8376 11.0228 60.8376 10.7101V4.2215ZM63.6294 11.2834C63.6294 12.3605 63.5195 13.2378 63.2995 13.9153C63.0795 14.5928 62.6734 15.0966 62.0812 15.4267C61.5059 15.7394 60.6514 15.8958 59.5178 15.8958H56.0406V3.1531H63.6294V11.2834ZM80 20.6124C80 20.8903 79.8646 21.1335 79.5939 21.342C79.3232 21.5505 79.0609 21.6547 78.8071 21.6547C78.0288 21.6547 77.3266 21.4549 76.7005 21.0554C76.0914 20.6384 75.5076 20.1868 74.9492 19.7003C74.5601 19.3355 74.1455 18.9012 73.7056 18.3974C73.2656 17.8936 72.8511 17.3724 72.4619 16.8339C72.0897 16.278 71.7682 15.7742 71.4975 15.3225V23.9479H68.5533V15.6873C67.5211 17.2334 66.4044 18.5016 65.203 19.4919C64.0186 20.4821 62.5973 21.3507 60.9391 22.0977C60.8037 22.1498 60.5838 22.2454 60.2792 22.3844C59.9746 22.5233 59.67 22.6536 59.3655 22.7752C59.0609 22.8969 58.8494 22.9577 58.731 22.9577C58.6802 22.9577 58.621 22.9316 58.5533 22.8795C58.4856 22.8447 58.4518 22.7926 58.4518 22.7231C58.4518 22.6363 58.4856 22.5581 58.5533 22.4886C58.6379 22.4191 58.714 22.367 58.7817 22.3322C59.0524 22.1585 59.3063 21.9848 59.5431 21.8111C59.7969 21.6547 60.0508 21.481 60.3046 21.2899C61.2183 20.595 62.0728 19.7959 62.868 18.8925C63.6802 17.9718 64.3993 16.9902 65.0254 15.9479C65.6514 14.8882 66.1421 13.8111 66.4975 12.7166L68.5533 13.3681V11.57H64.2893V10.3453H68.5533V6.33225H64.7462V5.10749H68.5533V0.677525H71.4975V5.10749H74.0101C74.044 4.67318 74.2047 4.30836 74.4924 4.01303C74.78 3.70033 75.1354 3.54397 75.5584 3.54397C75.9137 3.54397 76.2437 3.67427 76.5482 3.93485C76.8697 4.19544 77.0305 4.52552 77.0305 4.92508C77.0305 5.41151 76.8697 5.76764 76.5482 5.99348C76.2267 6.21933 75.846 6.33225 75.4061 6.33225H71.4975V10.3453H75.7868C75.8037 9.94571 75.9645 9.59826 76.269 9.30293C76.5736 9.0076 76.9205 8.85993 77.3096 8.85993C77.6819 8.85993 78.0203 8.99891 78.3249 9.27687C78.6294 9.55483 78.7817 9.89359 78.7817 10.2932C78.7817 10.6754 78.6294 10.9881 78.3249 11.2313C78.0203 11.4571 77.6988 11.57 77.3604 11.57H71.4975V13.4202L73.6041 12.6906C73.7394 13.177 73.9594 13.7676 74.264 14.4625C74.5685 15.1401 74.9154 15.8436 75.3046 16.5733C75.7107 17.3029 76.1252 17.9718 76.5482 18.5798C76.9712 19.1878 77.3689 19.6569 77.7411 19.987C77.8765 19.8306 78.0372 19.683 78.2233 19.544C78.4264 19.405 78.6379 19.3355 78.8579 19.3355C79.1963 19.3355 79.467 19.4658 79.67 19.7264C79.89 19.9696 80 20.2649 80 20.6124Z" fill="white"/>
<path d="M0.475846 39.9465C0.344816 39.9465 0.231027 39.9 0.134478 39.8072C0.044826 39.7073 0 39.5895 0 39.4538V32.8996C0 32.7639 0.044826 32.6461 0.134478 32.5462C0.231027 32.4462 0.344816 32.3963 0.475846 32.3963H4.49985C4.62398 32.3963 4.73087 32.4427 4.82052 32.5355C4.91018 32.6283 4.955 32.739 4.955 32.8675C4.955 32.996 4.91018 33.1066 4.82052 33.1995C4.73087 33.2851 4.62398 33.328 4.49985 33.328H1.08617C1.00341 33.328 0.962036 33.3708 0.962036 33.4565V35.6734H4.13779C4.26192 35.6734 4.36881 35.7198 4.45847 35.8126C4.54812 35.9054 4.59295 36.0161 4.59295 36.1446C4.59295 36.2731 4.54812 36.3838 4.45847 36.4766C4.36881 36.5622 4.26192 36.6051 4.13779 36.6051H0.962036V39.4538C0.962036 39.5895 0.913762 39.7073 0.817213 39.8072C0.720665 39.9 0.606876 39.9465 0.475846 39.9465Z" fill="white"/>
<path d="M8.84204 39.9465C8.71101 39.9465 8.59722 39.9 8.50067 39.8072C8.41102 39.7073 8.36619 39.5895 8.36619 39.4538V34.8594C8.36619 34.7238 8.41102 34.606 8.50067 34.506C8.59722 34.4061 8.71101 34.3561 8.84204 34.3561C8.97307 34.3561 9.08686 34.4061 9.18341 34.506C9.27996 34.606 9.32823 34.7238 9.32823 34.8594V35.2878C9.80408 34.631 10.342 34.3025 10.942 34.3025H10.9937C11.1247 34.3025 11.2351 34.3525 11.3247 34.4525C11.4144 34.5453 11.4592 34.6595 11.4592 34.7952C11.4592 34.9308 11.4109 35.0451 11.3144 35.1379C11.2247 35.2236 11.1109 35.2664 10.973 35.2664H10.9213C10.5972 35.2664 10.2972 35.3485 10.0213 35.5127C9.75235 35.6698 9.52133 35.8983 9.32823 36.1981V39.4538C9.32823 39.5895 9.27996 39.7073 9.18341 39.8072C9.08686 39.9 8.97307 39.9465 8.84204 39.9465Z" fill="white"/>
<path d="M17.0841 40C16.2359 40 15.5738 39.7501 15.098 39.2503C14.629 38.7506 14.3945 38.0509 14.3945 37.1513C14.3945 36.6658 14.4842 36.1981 14.6635 35.7483C14.8497 35.2985 15.1324 34.9451 15.5117 34.6881C15.891 34.4311 16.3462 34.3025 16.8772 34.3025C17.3875 34.3025 17.8324 34.4239 18.2116 34.6667C18.5703 34.9094 18.8496 35.2378 19.0496 35.6519C19.2495 36.0589 19.3495 36.5123 19.3495 37.012C19.3495 37.1477 19.3047 37.2655 19.2151 37.3655C19.1254 37.4583 19.0082 37.5047 18.8633 37.5047H15.3669C15.429 38.0116 15.6117 38.4007 15.9152 38.672C16.2255 38.9362 16.6427 39.0683 17.1669 39.0683C17.4427 39.0683 17.6875 39.0433 17.9013 38.9933C18.122 38.9362 18.3427 38.8505 18.5634 38.7363C18.6116 38.7077 18.6737 38.6934 18.7496 38.6934C18.8599 38.6934 18.9564 38.7363 19.0392 38.822C19.1289 38.9005 19.1737 39.0004 19.1737 39.1218C19.1737 39.286 19.0806 39.4217 18.8944 39.5288C18.6047 39.693 18.3289 39.8108 18.0668 39.8822C17.8048 39.9607 17.4772 40 17.0841 40ZM18.2634 36.6908C18.353 36.6908 18.3944 36.6444 18.3875 36.5515C18.3599 36.266 18.2772 36.0268 18.1392 35.834C17.9875 35.6055 17.7979 35.4342 17.5703 35.3199C17.3496 35.2057 17.1186 35.1486 16.8772 35.1486C16.6565 35.1486 16.4255 35.2021 16.1841 35.3092C15.9428 35.4306 15.7497 35.6127 15.6048 35.8554C15.4669 36.091 15.3876 36.3695 15.3669 36.6908H18.2634Z" fill="white"/>
<path d="M24.8296 40C24.1469 40 23.5159 39.8394 22.9366 39.5181C22.8194 39.4324 22.7607 39.311 22.7607 39.1539C22.7607 39.0397 22.7987 38.9398 22.8745 38.8541C22.9573 38.7613 23.0573 38.7149 23.1745 38.7149C23.2435 38.7149 23.3055 38.7291 23.3607 38.7577C23.5952 38.8648 23.8228 38.9469 24.0434 39.004C24.2641 39.054 24.5055 39.079 24.7676 39.079C25.5262 39.079 25.9055 38.8291 25.9055 38.3293C25.9055 38.1722 25.8227 38.0509 25.6572 37.9652C25.4848 37.8795 25.1951 37.7831 24.7882 37.676C24.3883 37.5832 24.0538 37.4797 23.7848 37.3655C23.4883 37.2512 23.2504 37.0799 23.0711 36.8514C22.8918 36.6229 22.8021 36.3409 22.8021 36.0054C22.8021 35.4984 22.9814 35.0879 23.34 34.7738C23.6986 34.4596 24.1952 34.3025 24.8296 34.3025C25.3813 34.3025 25.8813 34.3918 26.3296 34.5703C26.4261 34.5988 26.502 34.6524 26.5572 34.7309C26.6123 34.8095 26.6399 34.8951 26.6399 34.988C26.6399 35.1022 26.5985 35.2057 26.5158 35.2985C26.433 35.3842 26.333 35.427 26.2158 35.427L26.0813 35.4056C25.6675 35.2771 25.2744 35.2129 24.902 35.2129C24.5434 35.2129 24.2572 35.2807 24.0434 35.4163C23.8297 35.552 23.7228 35.7305 23.7228 35.9518C23.7228 36.1589 23.8159 36.3124 24.0021 36.4123C24.2021 36.5051 24.5021 36.6015 24.902 36.7015C25.2744 36.8014 25.6055 36.905 25.8951 37.012C26.1779 37.1263 26.4054 37.3012 26.5778 37.5368C26.7502 37.7653 26.8365 38.0544 26.8365 38.4043C26.8365 38.8684 26.6572 39.2503 26.2985 39.5502C25.9399 39.8501 25.4503 40 24.8296 40Z" fill="white"/>
<path d="M31.0959 39.9465C30.9649 39.9465 30.8511 39.9 30.7545 39.8072C30.6649 39.7073 30.62 39.5895 30.62 39.4538V32.5033C30.62 32.3677 30.6649 32.2499 30.7545 32.1499C30.8511 32.05 30.9649 32 31.0959 32C31.2269 32 31.3407 32.05 31.4373 32.1499C31.5338 32.2499 31.5821 32.3677 31.5821 32.5033V35.2664C31.8648 34.9523 32.1579 34.7131 32.4614 34.5489C32.7648 34.3846 33.1096 34.3025 33.4958 34.3025C33.8751 34.3025 34.2096 34.3954 34.4992 34.581C34.7751 34.7666 34.9854 35.0201 35.1302 35.3414C35.282 35.6627 35.3578 36.0196 35.3578 36.4123V39.4538C35.3578 39.5895 35.3095 39.7073 35.213 39.8072C35.1164 39.9 35.0027 39.9465 34.8716 39.9465C34.7406 39.9465 34.6268 39.9 34.5303 39.8072C34.4406 39.7073 34.3958 39.5895 34.3958 39.4538V36.5194C34.3958 35.6555 34.0199 35.2236 33.2682 35.2236C32.9372 35.2236 32.6372 35.3092 32.3683 35.4806C32.1062 35.6519 31.8441 35.9054 31.5821 36.241V39.4538C31.5821 39.5895 31.5338 39.7073 31.4373 39.8072C31.3407 39.9 31.2269 39.9465 31.0959 39.9465Z" fill="white"/>
<path d="M47.4455 39.9465C47.3145 39.9465 47.2007 39.9 47.1042 39.8072C47.0145 39.7073 46.9697 39.5895 46.9697 39.4538V33.328H44.8698C44.7456 33.328 44.6387 33.2851 44.5491 33.1995C44.4663 33.1066 44.4249 32.996 44.4249 32.8675C44.4249 32.739 44.4663 32.6283 44.5491 32.5355C44.6387 32.4427 44.7456 32.3963 44.8698 32.3963H50.0213C50.1454 32.3963 50.2523 32.4427 50.342 32.5355C50.4316 32.6283 50.4765 32.739 50.4765 32.8675C50.4765 32.996 50.4316 33.1066 50.342 33.1995C50.2523 33.2851 50.1454 33.328 50.0213 33.328H47.9317V39.4538C47.9317 39.5895 47.8835 39.7073 47.7869 39.8072C47.6904 39.9 47.5766 39.9465 47.4455 39.9465Z" fill="white"/>
<path d="M54.4773 40C54.1808 40 53.9015 39.9357 53.6394 39.8072C53.3704 39.6787 53.1601 39.4895 53.0084 39.2396C52.8567 38.9897 52.7808 38.7041 52.7808 38.3829C52.7808 37.826 52.9877 37.3976 53.4015 37.0977C53.8221 36.7907 54.4118 36.6372 55.1704 36.6372H56.4117V36.5622C56.4117 36.1053 56.3014 35.7733 56.0807 35.5663C55.8669 35.3521 55.5186 35.245 55.0359 35.245C54.7876 35.245 54.5635 35.2664 54.3635 35.3092C54.1635 35.3449 53.929 35.4092 53.6601 35.502L53.5256 35.5234C53.4222 35.5234 53.3291 35.4842 53.2463 35.4056C53.1704 35.3199 53.1325 35.22 53.1325 35.1058C53.1325 34.9058 53.2256 34.7666 53.4118 34.6881C53.9911 34.4311 54.5876 34.3025 55.2014 34.3025C55.6772 34.3025 56.0841 34.4025 56.4221 34.6024C56.7393 34.7952 56.9772 35.0522 57.1358 35.3735C57.2944 35.6876 57.3737 36.0375 57.3737 36.423V39.4538C57.3737 39.5895 57.3255 39.7073 57.2289 39.8072C57.1324 39.9 57.0186 39.9465 56.8876 39.9465C56.7565 39.9465 56.6427 39.9 56.5462 39.8072C56.4565 39.7073 56.4117 39.5895 56.4117 39.4538V39.1968C55.9152 39.7323 55.2704 40 54.4773 40ZM54.829 39.1218C55.1255 39.1218 55.4117 39.0504 55.6876 38.9076C55.9703 38.7577 56.2117 38.5649 56.4117 38.3293V37.4404H55.2945C54.2601 37.4404 53.7428 37.7189 53.7428 38.2758C53.7428 38.8398 54.1049 39.1218 54.829 39.1218Z" fill="white"/>
<path d="M63.1952 40C62.5125 40 61.8815 39.8394 61.3022 39.5181C61.1849 39.4324 61.1263 39.311 61.1263 39.1539C61.1263 39.0397 61.1642 38.9398 61.2401 38.8541C61.3229 38.7613 61.4228 38.7149 61.5401 38.7149C61.609 38.7149 61.6711 38.7291 61.7263 38.7577C61.9608 38.8648 62.1883 38.9469 62.409 39.004C62.6297 39.054 62.8711 39.079 63.1331 39.079C63.8917 39.079 64.271 38.8291 64.271 38.3293C64.271 38.1722 64.1883 38.0509 64.0228 37.9652C63.8503 37.8795 63.5607 37.7831 63.1538 37.676C62.7538 37.5832 62.4194 37.4797 62.1504 37.3655C61.8539 37.2512 61.6159 37.0799 61.4366 36.8514C61.2573 36.6229 61.1677 36.3409 61.1677 36.0054C61.1677 35.4984 61.347 35.0879 61.7056 34.7738C62.0642 34.4596 62.5607 34.3025 63.1952 34.3025C63.7469 34.3025 64.2469 34.3918 64.6952 34.5703C64.7917 34.5988 64.8676 34.6524 64.9227 34.7309C64.9779 34.8095 65.0055 34.8951 65.0055 34.988C65.0055 35.1022 64.9641 35.2057 64.8813 35.2985C64.7986 35.3842 64.6986 35.427 64.5814 35.427L64.4469 35.4056C64.0331 35.2771 63.64 35.2129 63.2676 35.2129C62.909 35.2129 62.6228 35.2807 62.409 35.4163C62.1952 35.552 62.0883 35.7305 62.0883 35.9518C62.0883 36.1589 62.1814 36.3124 62.3676 36.4123C62.5676 36.5051 62.8676 36.6015 63.2676 36.7015C63.64 36.8014 63.971 36.905 64.2607 37.012C64.5434 37.1263 64.771 37.3012 64.9434 37.5368C65.1158 37.7653 65.202 38.0544 65.202 38.4043C65.202 38.8684 65.0227 39.2503 64.6641 39.5502C64.3055 39.8501 63.8159 40 63.1952 40Z" fill="white"/>
<path d="M71.4993 39.0254C71.6028 39.0254 71.6924 39.0647 71.7683 39.1432C71.8441 39.2218 71.8821 39.3146 71.8821 39.4217C71.8821 39.5859 71.7993 39.7144 71.6338 39.8072C71.3648 39.9357 71.0787 40 70.7752 40C69.7615 40 69.2546 39.5252 69.2546 38.5756V35.3199H68.7374C68.6063 35.3199 68.5029 35.2842 68.427 35.2129C68.3581 35.1343 68.3236 35.0272 68.3236 34.8916C68.3236 34.7559 68.3581 34.6524 68.427 34.581C68.5029 34.5025 68.6063 34.4632 68.7374 34.4632H69.2546V33.7028C69.2546 33.5386 69.296 33.4137 69.3787 33.328C69.4684 33.2423 69.5891 33.1995 69.7408 33.1995C69.8925 33.1995 70.0097 33.2459 70.0925 33.3387C70.1752 33.4244 70.2166 33.5457 70.2166 33.7028V34.4632H71.3752C71.4924 34.4632 71.589 34.506 71.6648 34.5917C71.7476 34.6702 71.789 34.7702 71.789 34.8916C71.789 35.0058 71.7476 35.1058 71.6648 35.1914C71.589 35.2771 71.4924 35.3199 71.3752 35.3199H70.2166V38.49C70.2166 38.7398 70.2718 38.9076 70.3821 38.9933C70.4925 39.079 70.658 39.1218 70.8787 39.1218C71.0235 39.1218 71.1614 39.1004 71.2924 39.0576C71.3062 39.0576 71.3166 39.054 71.3235 39.0469C71.3924 39.0326 71.451 39.0254 71.4993 39.0254Z" fill="white"/>
<path d="M77.7346 40C76.8863 40 76.2243 39.7501 75.7484 39.2503C75.2795 38.7506 75.045 38.0509 75.045 37.1513C75.045 36.6658 75.1347 36.1981 75.314 35.7483C75.5002 35.2985 75.7829 34.9451 76.1622 34.6881C76.5415 34.4311 76.9967 34.3025 77.5277 34.3025C78.038 34.3025 78.4828 34.4239 78.8621 34.6667C79.2207 34.9094 79.5 35.2378 79.7 35.6519C79.9 36.0589 80 36.5123 80 37.012C80 37.1477 79.9552 37.2655 79.8655 37.3655C79.7759 37.4583 79.6586 37.5047 79.5138 37.5047H76.0174C76.0794 38.0116 76.2622 38.4007 76.5656 38.672C76.876 38.9362 77.2932 39.0683 77.8173 39.0683C78.0932 39.0683 78.338 39.0433 78.5518 38.9933C78.7725 38.9362 78.9931 38.8505 79.2138 38.7363C79.2621 38.7077 79.3242 38.6934 79.4 38.6934C79.5104 38.6934 79.6069 38.7363 79.6897 38.822C79.7793 38.9005 79.8241 39.0004 79.8241 39.1218C79.8241 39.286 79.731 39.4217 79.5448 39.5288C79.2552 39.693 78.9793 39.8108 78.7173 39.8822C78.4552 39.9607 78.1277 40 77.7346 40ZM78.9138 36.6908C79.0035 36.6908 79.0449 36.6444 79.038 36.5515C79.0104 36.266 78.9276 36.0268 78.7897 35.834C78.638 35.6055 78.4483 35.4342 78.2207 35.3199C78.0001 35.2057 77.769 35.1486 77.5277 35.1486C77.307 35.1486 77.076 35.2021 76.8346 35.3092C76.5932 35.4306 76.4001 35.6127 76.2553 35.8554C76.1174 36.091 76.0381 36.3695 76.0174 36.6908H78.9138Z" fill="white"/>
</svg>
